<?xml version="1.0" encoding="UTF-8" standalone="no"?>
<!DOCTYPE svg PUBLIC "-//W3C//DTD SVG 1.1//EN"
 "http://www.w3.org/Graphics/SVG/1.1/DTD/svg11.dtd">
<!-- Generated by graphviz version 14.1.5 (20260411.2331)
 -->
<!-- Title: system_architecture_formal Pages: 1 -->
<svg width="1463pt" height="320pt"
 viewBox="0.00 0.00 1463.00 320.00" xmlns="http://www.w3.org/2000/svg" xmlns:xlink="http://www.w3.org/1999/xlink">
<g id="graph0" class="graph" transform="scale(1 1) rotate(0) translate(4 316)">
<title>system_architecture_formal</title>
<polygon fill="white" stroke="none" points="-4,4 -4,-316 1458.86,-316 1458.86,4 -4,4"/>
<g id="clust1" class="cluster">
<title>cluster_price</title>
<path fill="#ffffff" stroke="#2f4f6f" stroke-width="1.4" d="M587.26,-160C587.26,-160 1037.02,-160 1037.02,-160 1043.02,-160 1049.02,-166 1049.02,-172 1049.02,-172 1049.02,-292 1049.02,-292 1049.02,-298 1043.02,-304 1037.02,-304 1037.02,-304 587.26,-304 587.26,-304 581.26,-304 575.26,-298 575.26,-292 575.26,-292 575.26,-172 575.26,-172 575.26,-166 581.26,-160 587.26,-160"/>
<text xml:space="preserve" text-anchor="middle" x="812.14" y="-286.7" font-family="Microsoft JhengHei" font-size="14.00">股價分析模組</text>
</g>
<g id="clust2" class="cluster">
<title>cluster_news</title>
<path fill="#ffffff" stroke="#2f4f6f" stroke-width="1.4" d="M587.26,-8C587.26,-8 1037.02,-8 1037.02,-8 1043.02,-8 1049.02,-14 1049.02,-20 1049.02,-20 1049.02,-140 1049.02,-140 1049.02,-146 1043.02,-152 1037.02,-152 1037.02,-152 587.26,-152 587.26,-152 581.26,-152 575.26,-146 575.26,-140 575.26,-140 575.26,-20 575.26,-20 575.26,-14 581.26,-8 587.26,-8"/>
<text xml:space="preserve" text-anchor="middle" x="812.14" y="-134.7" font-family="Microsoft JhengHei" font-size="14.00">新聞情緒模組</text>
</g>
<!-- input -->
<g id="node1" class="node">
<title>input</title>
<path fill="#f8f9fa" stroke="#2f4f6f" stroke-width="1.3" d="M121.92,-190.51C121.92,-190.51 12,-190.51 12,-190.51 6,-190.51 0,-184.51 0,-178.51 0,-178.51 0,-119.48 0,-119.48 0,-113.48 6,-107.48 12,-107.48 12,-107.48 121.92,-107.48 121.92,-107.48 127.92,-107.48 133.92,-113.48 133.92,-119.48 133.92,-119.48 133.92,-178.51 133.92,-178.51 133.92,-184.51 127.92,-190.51 121.92,-190.51"/>
<text xml:space="preserve" text-anchor="middle" x="66.96" y="-170.47" font-family="Microsoft JhengHei" font-size="12.00">使用者輸入</text>
<text xml:space="preserve" text-anchor="middle" x="66.96" y="-139.22" font-family="Microsoft JhengHei" font-size="12.00">股票代碼／公司名稱</text>
<text xml:space="preserve" text-anchor="middle" x="66.96" y="-121.97" font-family="Microsoft JhengHei" font-size="12.00">台股大盤／金融術語</text>
</g>
<!-- frontend -->
<g id="node2" class="node">
<title>frontend</title>
<path fill="#f8f9fa" stroke="#2f4f6f" stroke-width="1.3" d="M315.34,-199.14C315.34,-199.14 206.92,-199.14 206.92,-199.14 200.92,-199.14 194.92,-193.14 194.92,-187.14 194.92,-187.14 194.92,-110.86 194.92,-110.86 194.92,-104.86 200.92,-98.86 206.92,-98.86 206.92,-98.86 315.34,-98.86 315.34,-98.86 321.34,-98.86 327.34,-104.86 327.34,-110.86 327.34,-110.86 327.34,-187.14 327.34,-187.14 327.34,-193.14 321.34,-199.14 315.34,-199.14"/>
<text xml:space="preserve" text-anchor="middle" x="261.13" y="-179.1" font-family="Microsoft JhengHei" font-size="12.00">React 前端互動介面</text>
<text xml:space="preserve" text-anchor="middle" x="261.13" y="-147.85" font-family="Microsoft JhengHei" font-size="12.00">問題輸入</text>
<text xml:space="preserve" text-anchor="middle" x="261.13" y="-130.6" font-family="Microsoft JhengHei" font-size="12.00">風險設定</text>
<text xml:space="preserve" text-anchor="middle" x="261.13" y="-113.35" font-family="Microsoft JhengHei" font-size="12.00">分析結果呈現</text>
</g>
<!-- input&#45;&gt;frontend -->
<g id="edge5" class="edge">
<title>input&#45;&gt;frontend</title>
<path fill="none" stroke="#2f4f6f" stroke-width="1.2" d="M134.33,-149C134.33,-149 185.22,-149 185.22,-149"/>
<polygon fill="#2f4f6f" stroke="#2f4f6f" stroke-width="1.2" points="185.22,-151.63 192.72,-149 185.22,-146.38 185.22,-151.63"/>
</g>
<!-- intent -->
<g id="node3" class="node">
<title>intent</title>
<path fill="#f8f9fa" stroke="#2f4f6f" stroke-width="1.3" d="M510.26,-190.51C510.26,-190.51 400.34,-190.51 400.34,-190.51 394.34,-190.51 388.34,-184.51 388.34,-178.51 388.34,-178.51 388.34,-119.48 388.34,-119.48 388.34,-113.48 394.34,-107.48 400.34,-107.48 400.34,-107.48 510.26,-107.48 510.26,-107.48 516.26,-107.48 522.26,-113.48 522.26,-119.48 522.26,-119.48 522.26,-178.51 522.26,-178.51 522.26,-184.51 516.26,-190.51 510.26,-190.51"/>
<text xml:space="preserve" text-anchor="middle" x="455.3" y="-170.47" font-family="Microsoft JhengHei" font-size="12.00">意圖辨識與標的解析</text>
<text xml:space="preserve" text-anchor="middle" x="455.3" y="-139.22" font-family="Microsoft JhengHei" font-size="12.00">判斷問題類型</text>
<text xml:space="preserve" text-anchor="middle" x="455.3" y="-121.97" font-family="Microsoft JhengHei" font-size="12.00">解析分析標的</text>
</g>
<!-- frontend&#45;&gt;intent -->
<g id="edge6" class="edge">
<title>frontend&#45;&gt;intent</title>
<path fill="none" stroke="#2f4f6f" stroke-width="1.2" d="M327.95,-149C327.95,-149 378.38,-149 378.38,-149"/>
<polygon fill="#2f4f6f" stroke="#2f4f6f" stroke-width="1.2" points="378.38,-151.63 385.88,-149 378.38,-146.38 378.38,-151.63"/>
</g>
<!-- price_data -->
<g id="node4" class="node">
<title>price_data</title>
<path fill="#eef3f7" stroke="#2f4f6f" stroke-width="1.3" d="M669.18,-211C669.18,-211 595.26,-211 595.26,-211 589.26,-211 583.26,-205 583.26,-199 583.26,-199 583.26,-187 583.26,-187 583.26,-181 589.26,-175 595.26,-175 595.26,-175 669.18,-175 669.18,-175 675.18,-175 681.18,-181 681.18,-187 681.18,-187 681.18,-199 681.18,-199 681.18,-205 675.18,-211 669.18,-211"/>
<text xml:space="preserve" text-anchor="middle" x="632.22" y="-190.22" font-family="Microsoft JhengHei" font-size="12.00">歷史價量資料</text>
</g>
<!-- intent&#45;&gt;price_data -->
<g id="edge7" class="edge">
<title>intent&#45;&gt;price_data</title>
<path fill="none" stroke="#2f4f6f" stroke-width="1.2" d="M522.69,-182.76C522.69,-182.76 573.31,-182.76 573.31,-182.76"/>
<polygon fill="#2f4f6f" stroke="#2f4f6f" stroke-width="1.2" points="573.31,-185.38 580.81,-182.76 573.31,-180.13 573.31,-185.38"/>
</g>
<!-- news_data -->
<g id="node7" class="node">
<title>news_data</title>
<path fill="#eef3f7" stroke="#2f4f6f" stroke-width="1.3" d="M669.18,-104C669.18,-104 595.26,-104 595.26,-104 589.26,-104 583.26,-98 583.26,-92 583.26,-92 583.26,-80 583.26,-80 583.26,-74 589.26,-68 595.26,-68 595.26,-68 669.18,-68 669.18,-68 675.18,-68 681.18,-74 681.18,-80 681.18,-80 681.18,-92 681.18,-92 681.18,-98 675.18,-104 669.18,-104"/>
<text xml:space="preserve" text-anchor="middle" x="632.22" y="-83.22" font-family="Microsoft JhengHei" font-size="12.00">近期新聞資料</text>
</g>
<!-- intent&#45;&gt;news_data -->
<g id="edge8" class="edge">
<title>intent&#45;&gt;news_data</title>
<path fill="none" stroke="#2f4f6f" stroke-width="1.2" d="M522.81,-111.81C572.65,-111.81 631.86,-111.81 631.86,-111.81 631.86,-111.81 631.86,-111.08 631.86,-111.08"/>
<polygon fill="#2f4f6f" stroke="#2f4f6f" stroke-width="1.2" points="634.49,-113.8 631.86,-106.3 629.24,-113.8 634.49,-113.8"/>
</g>
<!-- price_process -->
<g id="node5" class="node">
<title>price_process</title>
<path fill="#eef3f7" stroke="#2f4f6f" stroke-width="1.3" d="M854.73,-241.26C854.73,-241.26 769.56,-241.26 769.56,-241.26 763.56,-241.26 757.56,-235.26 757.56,-229.26 757.56,-229.26 757.56,-188.74 757.56,-188.74 757.56,-182.74 763.56,-176.74 769.56,-176.74 769.56,-176.74 854.73,-176.74 854.73,-176.74 860.73,-176.74 866.73,-182.74 866.73,-188.74 866.73,-188.74 866.73,-229.26 866.73,-229.26 866.73,-235.26 860.73,-241.26 854.73,-241.26"/>
<text xml:space="preserve" text-anchor="middle" x="812.14" y="-221.22" font-family="Microsoft JhengHei" font-size="12.00">技術指標計算</text>
<text xml:space="preserve" text-anchor="middle" x="812.14" y="-203.97" font-family="Microsoft JhengHei" font-size="12.00">+</text>
<text xml:space="preserve" text-anchor="middle" x="812.14" y="-191.22" font-family="Microsoft JhengHei" font-size="12.00">LSTM 量化預測</text>
</g>
<!-- price_data&#45;&gt;price_process -->
<g id="edge1" class="edge">
<title>price_data&#45;&gt;price_process</title>
<path fill="none" stroke="#2f4f6f" stroke-width="1.2" d="M681.38,-193.87C681.38,-193.87 747.7,-193.87 747.7,-193.87"/>
<polygon fill="#2f4f6f" stroke="#2f4f6f" stroke-width="1.2" points="747.7,-196.49 755.2,-193.87 747.7,-191.24 747.7,-196.49"/>
</g>
<!-- price_output -->
<g id="node6" class="node">
<title>price_output</title>
<path fill="#eef3f7" stroke="#2f4f6f" stroke-width="1.3" d="M1029.02,-268.14C1029.02,-268.14 955.1,-268.14 955.1,-268.14 949.1,-268.14 943.1,-262.14 943.1,-256.14 943.1,-256.14 943.1,-179.86 943.1,-179.86 943.1,-173.86 949.1,-167.86 955.1,-167.86 955.1,-167.86 1029.02,-167.86 1029.02,-167.86 1035.02,-167.86 1041.02,-173.86 1041.02,-179.86 1041.02,-179.86 1041.02,-256.14 1041.02,-256.14 1041.02,-262.14 1035.02,-268.14 1029.02,-268.14"/>
<text xml:space="preserve" text-anchor="middle" x="992.06" y="-248.1" font-family="Microsoft JhengHei" font-size="12.00">股價分析結果</text>
<text xml:space="preserve" text-anchor="middle" x="992.06" y="-216.85" font-family="Microsoft JhengHei" font-size="12.00">量化訊號</text>
<text xml:space="preserve" text-anchor="middle" x="992.06" y="-199.6" font-family="Microsoft JhengHei" font-size="12.00">技術狀態</text>
<text xml:space="preserve" text-anchor="middle" x="992.06" y="-182.35" font-family="Microsoft JhengHei" font-size="12.00">風險指標</text>
</g>
<!-- price_process&#45;&gt;price_output -->
<g id="edge2" class="edge">
<title>price_process&#45;&gt;price_output</title>
<path fill="none" stroke="#2f4f6f" stroke-width="1.2" d="M867.1,-209C867.1,-209 933.32,-209 933.32,-209"/>
<polygon fill="#2f4f6f" stroke="#2f4f6f" stroke-width="1.2" points="933.32,-211.63 940.82,-209 933.32,-206.38 933.32,-211.63"/>
</g>
<!-- llm -->
<g id="node10" class="node">
<title>llm</title>
<path fill="#f8f9fa" stroke="#2f4f6f" stroke-width="1.3" d="M1247.94,-183.51C1247.94,-183.51 1114.02,-183.51 1114.02,-183.51 1108.02,-183.51 1102.02,-177.51 1102.02,-171.51 1102.02,-171.51 1102.02,-112.48 1102.02,-112.48 1102.02,-106.48 1108.02,-100.48 1114.02,-100.48 1114.02,-100.48 1247.94,-100.48 1247.94,-100.48 1253.94,-100.48 1259.94,-106.48 1259.94,-112.48 1259.94,-112.48 1259.94,-171.51 1259.94,-171.51 1259.94,-177.51 1253.94,-183.51 1247.94,-183.51"/>
<text xml:space="preserve" text-anchor="middle" x="1180.98" y="-163.47" font-family="Microsoft JhengHei" font-size="12.00">LLM 自然語言說明模組</text>
<text xml:space="preserve" text-anchor="middle" x="1180.98" y="-132.22" font-family="Microsoft JhengHei" font-size="12.00">整合股價分析、新聞情緒</text>
<text xml:space="preserve" text-anchor="middle" x="1180.98" y="-114.97" font-family="Microsoft JhengHei" font-size="12.00">與使用者風險偏好</text>
</g>
<!-- price_output&#45;&gt;llm -->
<g id="edge9" class="edge">
<title>price_output&#45;&gt;llm</title>
<path fill="none" stroke="#2f4f6f" stroke-width="1.2" d="M1041.2,-175.69C1041.2,-175.69 1092.4,-175.69 1092.4,-175.69"/>
<polygon fill="#2f4f6f" stroke="#2f4f6f" stroke-width="1.2" points="1092.4,-178.31 1099.9,-175.69 1092.4,-173.06 1092.4,-178.31"/>
</g>
<!-- news_process -->
<g id="node8" class="node">
<title>news_process</title>
<path fill="#eef3f7" stroke="#2f4f6f" stroke-width="1.3" d="M870.1,-106.27C870.1,-106.27 754.18,-106.27 754.18,-106.27 748.18,-106.27 742.18,-100.27 742.18,-94.27 742.18,-94.27 742.18,-53.73 742.18,-53.73 742.18,-47.73 748.18,-41.73 754.18,-41.73 754.18,-41.73 870.1,-41.73 870.1,-41.73 876.1,-41.73 882.1,-47.73 882.1,-53.73 882.1,-53.73 882.1,-94.27 882.1,-94.27 882.1,-100.27 876.1,-106.27 870.1,-106.27"/>
<text xml:space="preserve" text-anchor="middle" x="812.14" y="-86.22" font-family="Microsoft JhengHei" font-size="12.00">LLM 實體過濾</text>
<text xml:space="preserve" text-anchor="middle" x="812.14" y="-68.97" font-family="Microsoft JhengHei" font-size="12.00">+</text>
<text xml:space="preserve" text-anchor="middle" x="812.14" y="-56.23" font-family="Microsoft JhengHei" font-size="12.00">Hybrid FinBERT 分析</text>
</g>
<!-- news_data&#45;&gt;news_process -->
<g id="edge3" class="edge">
<title>news_data&#45;&gt;news_process</title>
<path fill="none" stroke="#2f4f6f" stroke-width="1.2" d="M681.38,-86C681.38,-86 732.47,-86 732.47,-86"/>
<polygon fill="#2f4f6f" stroke="#2f4f6f" stroke-width="1.2" points="732.47,-88.63 739.97,-86 732.47,-83.38 732.47,-88.63"/>
</g>
<!-- news_output -->
<g id="node9" class="node">
<title>news_output</title>
<path fill="#eef3f7" stroke="#2f4f6f" stroke-width="1.3" d="M1029.02,-116.14C1029.02,-116.14 955.1,-116.14 955.1,-116.14 949.1,-116.14 943.1,-110.14 943.1,-104.14 943.1,-104.14 943.1,-27.86 943.1,-27.86 943.1,-21.86 949.1,-15.86 955.1,-15.86 955.1,-15.86 1029.02,-15.86 1029.02,-15.86 1035.02,-15.86 1041.02,-21.86 1041.02,-27.86 1041.02,-27.86 1041.02,-104.14 1041.02,-104.14 1041.02,-110.14 1035.02,-116.14 1029.02,-116.14"/>
<text xml:space="preserve" text-anchor="middle" x="992.06" y="-96.1" font-family="Microsoft JhengHei" font-size="12.00">新聞情緒結果</text>
<text xml:space="preserve" text-anchor="middle" x="992.06" y="-64.85" font-family="Microsoft JhengHei" font-size="12.00">情緒分數</text>
<text xml:space="preserve" text-anchor="middle" x="992.06" y="-47.6" font-family="Microsoft JhengHei" font-size="12.00">情緒標籤</text>
<text xml:space="preserve" text-anchor="middle" x="992.06" y="-30.35" font-family="Microsoft JhengHei" font-size="12.00">新聞關聯性</text>
</g>
<!-- news_process&#45;&gt;news_output -->
<g id="edge4" class="edge">
<title>news_process&#45;&gt;news_output</title>
<path fill="none" stroke="#2f4f6f" stroke-width="1.2" d="M882.73,-74C882.73,-74 933.18,-74 933.18,-74"/>
<polygon fill="#2f4f6f" stroke="#2f4f6f" stroke-width="1.2" points="933.18,-76.63 940.68,-74 933.18,-71.38 933.18,-76.63"/>
</g>
<!-- news_output&#45;&gt;llm -->
<g id="edge10" class="edge">
<title>news_output&#45;&gt;llm</title>
<path fill="none" stroke="#2f4f6f" stroke-width="1.2" d="M1041.2,-108.31C1041.2,-108.31 1092.4,-108.31 1092.4,-108.31"/>
<polygon fill="#2f4f6f" stroke="#2f4f6f" stroke-width="1.2" points="1092.4,-110.94 1099.9,-108.31 1092.4,-105.69 1092.4,-110.94"/>
</g>
<!-- result -->
<g id="node11" class="node">
<title>result</title>
<path fill="#f8f9fa" stroke="#2f4f6f" stroke-width="1.3" d="M1442.86,-192.14C1442.86,-192.14 1332.94,-192.14 1332.94,-192.14 1326.94,-192.14 1320.94,-186.14 1320.94,-180.14 1320.94,-180.14 1320.94,-103.86 1320.94,-103.86 1320.94,-97.86 1326.94,-91.86 1332.94,-91.86 1332.94,-91.86 1442.86,-91.86 1442.86,-91.86 1448.86,-91.86 1454.86,-97.86 1454.86,-103.86 1454.86,-103.86 1454.86,-180.14 1454.86,-180.14 1454.86,-186.14 1448.86,-192.14 1442.86,-192.14"/>
<text xml:space="preserve" text-anchor="middle" x="1387.9" y="-172.1" font-family="Microsoft JhengHei" font-size="12.00">系統回覆與結果呈現</text>
<text xml:space="preserve" text-anchor="middle" x="1387.9" y="-140.85" font-family="Microsoft JhengHei" font-size="12.00">自然語言分析</text>
<text xml:space="preserve" text-anchor="middle" x="1387.9" y="-123.6" font-family="Microsoft JhengHei" font-size="12.00">模型訊號</text>
<text xml:space="preserve" text-anchor="middle" x="1387.9" y="-106.35" font-family="Microsoft JhengHei" font-size="12.00">新聞情緒解釋</text>
</g>
<!-- llm&#45;&gt;result -->
<g id="edge11" class="edge">
<title>llm&#45;&gt;result</title>
<path fill="none" stroke="#2f4f6f" stroke-width="1.2" d="M1260.39,-142C1260.39,-142 1311.17,-142 1311.17,-142"/>
<polygon fill="#2f4f6f" stroke="#2f4f6f" stroke-width="1.2" points="1311.17,-144.63 1318.67,-142 1311.17,-139.38 1311.17,-144.63"/>
</g>
</g>
</svg>
